# xmcd
#
# Track frame offsets: 
#        150
#        20871
#        38561
#        60930
#        85567
#        110459
#        135343
#        172758
#        211760
#        226114
#        242574
#        280461
#        318758
#
# Disc length: 4466 seconds
#
# Revision: 0
# Processed by: cddbd v1.5.2PL0 Copyright (c) Steve Scherf et al.
# Submitted via: ExactAudioCopy v0.99pb5
#
DISCID=9511700d
DTITLE=Henrik Freischlader - Recorded by Martin Meinschäfer
DYEAR=2009
DGENRE=Blues
TTITLE0=I
TTITLE1=Got it made (like this)
TTITLE2=So damn cool
TTITLE3=You will come
TTITLE4=Breakout
TTITLE5=In your arms
TTITLE6=The Bridge
TTITLE7=Cry again
TTITLE8=The wrong way
TTITLE9=Never be true
TTITLE10=Desert Love
TTITLE11=Bad Dreams
TTITLE12=Your love of mine
EXTD=
EXTT0=
EXTT1=
EXTT2=
EXTT3=
EXTT4=
EXTT5=
EXTT6=
EXTT7=
EXTT8=
EXTT9=
EXTT10=
EXTT11=
EXTT12=
PLAYORDER=
